<svg width="40" height="40" viewBox="0 0 40 40" fill="none" xmlns="http://www.w3.org/2000/svg">
<path fill-rule="evenodd" clip-rule="evenodd" d="M19.3789 12C19.4129 12.0282 23.7566 15.6394 23.7568 19.1475V26.6748H15V19.1475C15.0003 15.6257 19.3789 12 19.3789 12ZM20.6963 17.6963C20.741 17.4013 20.3874 17.2157 20.1699 17.4199L16.7803 20.6016C16.6133 20.7585 16.6656 21.036 16.8779 21.1221L18.3047 21.7002C18.3586 21.722 18.3906 21.7784 18.3818 21.8359L18.0605 23.9502C18.016 24.245 18.3695 24.4307 18.5869 24.2266L21.9766 21.0439C22.1433 20.887 22.0912 20.6095 21.8789 20.5234L20.4521 19.9453C20.3983 19.9235 20.3663 19.8671 20.375 19.8096L20.6963 17.6963Z" fill="white"/>
</svg>
