<svg width="40" height="40" viewBox="0 0 40 40" fill="none" xmlns="http://www.w3.org/2000/svg">
<path d="M11.3636 4.54541L15 4.54541L15.9091 7.72723L20 7.72723L24.0909 7.72723L25 4.54541L28.6363 4.54541L29 13.5L31 19.5L29.5454 20.909L30.9091 32.7272L25.9091 35.4545L14.0909 35.4545L9.09088 32.7272L10.4545 20.909L9 19.5L11 13.5L11.3636 4.54541Z" fill="white"/>
<path d="M11.3636 4.54541L12.7272 19.0909L11.8182 30.909L14.0909 35.4545L25.9091 35.4545L28.1818 30.909L27.2727 19.0909L28.6363 4.54541L29 13.5L30 19L29.5454 20.909L30.9091 32.7272L25.9091 35.4545L14.0909 35.4545L9.09088 32.7272L10.4545 20.909L10 19.0909L11 13.5L11.3636 4.54541Z" fill="black" fill-opacity="0.15"/>
</svg>
