<svg width="160" height="160" viewBox="0 0 160 160" fill="none" xmlns="http://www.w3.org/2000/svg">
<path d="M98.1816 160H61.8184V150H98.1816V160ZM10.0264 129.091C10.5772 140.373 19.627 149.422 30.9092 149.973V159.979C14.1033 159.417 0.583487 145.897 0.0205078 129.091H10.0264ZM159.979 129.091C159.417 145.897 145.897 159.416 129.091 159.979V149.973C140.373 149.422 149.423 140.373 149.974 129.091H159.979ZM10 98.1816H0V61.8174H10V98.1816ZM160 98.1816H150V61.8174H160V98.1816ZM30.9092 10.0264C19.627 10.5772 10.5772 19.627 10.0264 30.9092H0.0205078C0.583486 14.1033 14.1033 0.582498 30.9092 0.0195312V10.0264ZM129.091 0.0205078C145.897 0.583486 159.417 14.1033 159.979 30.9092H149.974C149.423 19.627 140.373 10.5772 129.091 10.0264V0.0205078ZM98.1816 10H61.8184V0H98.1816V10Z" fill="white"/>
</svg>
