<svg width="20" height="14" viewBox="0 0 20 14" fill="none" xmlns="http://www.w3.org/2000/svg">
<ellipse cx="9.99984" cy="6.99996" rx="3.15841" ry="3.15841" fill="white"/>
<path fill-rule="evenodd" clip-rule="evenodd" d="M16.8828 0.783447C16.6601 1.02993 16.4243 1.26439 16.1765 1.48574C17.4845 2.94989 18.2797 4.88203 18.2797 6.99988C18.2797 9.11779 17.4845 11.05 16.1764 12.5141C16.4242 12.7355 16.66 12.9699 16.8827 13.2164C18.3692 11.5716 19.2745 9.39147 19.2745 6.99988C19.2745 4.60834 18.3693 2.42823 16.8828 0.783447ZM3.1172 13.2164C3.33996 12.9699 3.57578 12.7355 3.82355 12.5141C2.51544 11.05 1.72024 9.11779 1.72024 6.99988C1.72024 4.88203 2.5154 2.94989 3.82345 1.48573C3.57568 1.26439 3.33987 1.02993 3.11711 0.783447C1.63065 2.42823 0.725464 4.60834 0.725464 6.99988C0.725464 9.39147 1.63069 11.5716 3.1172 13.2164ZM5.00865 2.38523C3.88749 3.59731 3.20233 5.21858 3.20233 6.99988C3.20233 8.78124 3.88754 10.4026 5.00877 11.6147C5.29656 11.4306 5.59519 11.2619 5.90349 11.1099C4.84941 10.0592 4.19711 8.60573 4.19711 6.99988C4.19711 5.3941 4.84935 3.94066 5.90335 2.89003C5.59506 2.738 5.29643 2.56934 5.00865 2.38523ZM14.0966 2.89003C15.1506 3.94066 15.8028 5.3941 15.8028 6.99988C15.8028 8.60573 15.1505 10.0592 14.0964 11.1099C14.4047 11.2619 14.7034 11.4306 14.9912 11.6147C16.1124 10.4026 16.7976 8.78124 16.7976 6.99988C16.7976 5.21858 16.1124 3.59731 14.9913 2.38523C14.7035 2.56934 14.4049 2.738 14.0966 2.89003Z" fill="white"/>
</svg>
