<svg width="10" height="16" viewBox="0 0 10 16" fill="none" xmlns="http://www.w3.org/2000/svg">
<path fill-rule="evenodd" clip-rule="evenodd" d="M4.99805 0.457031C5.032 0.485197 9.3757 4.09645 9.37598 7.60449V15.1318H0.619141V7.60449C0.61942 4.08269 4.99805 0.457031 4.99805 0.457031ZM6.31543 6.15332C6.36018 5.85838 6.00655 5.67276 5.78906 5.87695L2.39941 9.05859C2.23242 9.21549 2.2847 9.493 2.49707 9.5791L3.92383 10.1572C3.97772 10.1791 4.0097 10.2355 4.00098 10.293L3.67969 12.4072C3.63513 12.702 3.98862 12.8877 4.20605 12.6836L7.5957 9.50098C7.76245 9.34405 7.71033 9.06653 7.49805 8.98047L6.07129 8.40234C6.01739 8.38049 5.98542 8.3241 5.99414 8.2666L6.31543 6.15332Z" fill="white"/>
</svg>
