<svg width="27" height="32" viewBox="0 0 27 32" fill="none" xmlns="http://www.w3.org/2000/svg">
<path d="M21.9263 7.4515L24.1058 5.272L26.2268 7.393L24.0473 9.5725C26.201 12.2682 27.2407 15.6863 26.9529 19.1247C26.6652 22.5631 25.0718 25.7608 22.5001 28.0611C19.9283 30.3613 16.5734 31.5896 13.1243 31.4936C9.67525 31.3976 6.39386 29.9846 3.95406 27.5448C1.51426 25.105 0.101249 21.8236 0.00523324 18.3745C-0.0907826 14.9254 1.13748 11.5705 3.43777 8.99877C5.73806 6.42701 8.93576 4.83363 12.3741 4.54588C15.8125 4.25813 19.2306 5.29785 21.9263 7.4515ZM13.4993 28.4995C14.8782 28.4995 16.2436 28.2279 17.5175 27.7002C18.7914 27.1725 19.9489 26.3991 20.9239 25.4241C21.899 24.4491 22.6724 23.2916 23.2001 22.0177C23.7277 20.7437 23.9993 19.3784 23.9993 17.9995C23.9993 16.6206 23.7277 15.2552 23.2001 13.9813C22.6724 12.7074 21.899 11.5499 20.9239 10.5749C19.9489 9.59986 18.7914 8.82644 17.5175 8.29877C16.2436 7.77109 14.8782 7.4995 13.4993 7.4995C10.7146 7.4995 8.04386 8.60575 6.07473 10.5749C4.1056 12.544 2.99935 15.2147 2.99935 17.9995C2.99935 20.7843 4.1056 23.455 6.07473 25.4241C8.04386 27.3932 10.7146 28.4995 13.4993 28.4995ZM11.9993 10.4995H14.9993V19.4995H11.9993V10.4995ZM7.49935 -0.000488281H19.4993V2.99951H7.49935V-0.000488281Z" fill="white"/>
</svg>
