<svg width="40" height="40" viewBox="0 0 40 40" fill="none" xmlns="http://www.w3.org/2000/svg">
<path d="M6.926 4.86602C10.5551 1.72134 15.198 -0.00667973 20 1.94053e-05C31.046 1.94053e-05 40 8.95402 40 20C40 24.272 38.66 28.232 36.38 31.48L30 20H36C36.0003 16.8633 35.0785 13.7956 33.3493 11.1785C31.6202 8.56144 29.1599 6.51034 26.2744 5.28027C23.3889 4.0502 20.2054 3.69542 17.1199 4.26006C14.0344 4.82469 11.1829 6.28382 8.92 8.45602L6.926 4.86602ZM33.074 35.134C29.4449 38.2787 24.802 40.0067 20 40C8.954 40 0 31.046 0 20C0 15.728 1.34 11.768 3.62 8.52002L10 20H4C3.99974 23.1368 4.9215 26.2044 6.65067 28.8215C8.37984 31.4386 10.8401 33.4897 13.7256 34.7198C16.6111 35.9498 19.7946 36.3046 22.8801 35.74C25.9656 35.1754 28.8171 33.7162 31.08 31.544L33.074 35.134Z" fill="white"/>
</svg>
