<svg width="40" height="40" viewBox="0 0 40 40" fill="none" xmlns="http://www.w3.org/2000/svg">
<path d="M12.7468 20.2914C12.7468 16.797 15.1735 12.7202 15.1735 12.7202C15.1735 12.7202 17.6001 16.797 17.6001 20.2914C17.6001 23.0092 17.6001 27.2802 17.6001 27.2802H12.7468C12.7468 27.2802 12.7468 23.0092 12.7468 20.2914Z" fill="white"/>
<path d="M22.3998 20.2914C22.3998 16.797 24.8265 12.7202 24.8265 12.7202C24.8265 12.7202 27.2532 16.797 27.2532 20.2914C27.2532 23.0092 27.2532 27.2802 27.2532 27.2802H22.3998C22.3998 27.2802 22.3998 23.0092 22.3998 20.2914Z" fill="white"/>
<path d="M24.5454 40V37.5H15.4545V40H24.5454Z" fill="white"/>
<path d="M32.2727 37.4934V39.9954C36.4742 39.8547 39.8547 36.4742 39.9954 32.2727H37.4934C37.3556 35.0932 35.0932 37.3556 32.2727 37.4934Z" fill="white"/>
<path d="M32.2727 2.50664V0.00456122C36.4742 0.145305 39.8547 3.52582 39.9954 7.72732H37.4934C37.3556 4.90677 35.0933 2.64437 32.2727 2.50664Z" fill="white"/>
<path d="M24.5454 2.5V0H15.4546V2.5H24.5454Z" fill="white"/>
<path d="M7.72727 39.9954L7.72727 37.4934C4.90675 37.3556 2.64437 35.0932 2.50664 32.2727H0.00456086C0.145299 36.4742 3.5258 39.8547 7.72727 39.9954Z" fill="white"/>
<path d="M37.5 15.4546H40V24.5454H37.5V15.4546Z" fill="white"/>
<path d="M7.72728 2.50664C4.90674 2.64437 2.64435 4.90677 2.50664 7.72732L0.00456005 7.72731C0.145286 3.52582 3.52579 0.145306 7.72728 0.00456127L7.72728 2.50664Z" fill="white"/>
<path d="M2.5 15.4546H0V24.5454H2.5V15.4546Z" fill="white"/>
</svg>
