<svg width="41" height="41" viewBox="0 0 41 41" fill="none" xmlns="http://www.w3.org/2000/svg">
<path d="M25.0454 40.9092V38.4092H15.9545V40.9092H25.0454Z" fill="white"/>
<path d="M32.7727 38.4025V40.9046C36.9742 40.7639 40.3547 37.3834 40.4954 33.1819H37.9934C37.8556 36.0024 35.5932 38.2648 32.7727 38.4025Z" fill="white"/>
<path d="M32.7727 3.41582V0.913741C36.9742 1.05448 40.3547 4.435 40.4954 8.6365H37.9934C37.8556 5.81595 35.5933 3.55355 32.7727 3.41582Z" fill="white"/>
<path d="M25.0454 3.40918V0.90918H15.9546V3.40918H25.0454Z" fill="white"/>
<path d="M8.22727 40.9046L8.22727 38.4025C5.40675 38.2648 3.14437 36.0024 3.00664 33.1819H0.504561C0.645299 37.3834 4.0258 40.7639 8.22727 40.9046Z" fill="white"/>
<path d="M38 16.3638H40.5V25.4546H38V16.3638Z" fill="white"/>
<path d="M8.22728 3.41582C5.40674 3.55355 3.14435 5.81595 3.00664 8.6365L0.50456 8.63649C0.645286 4.435 4.02579 1.05449 8.22728 0.913741L8.22728 3.41582Z" fill="white"/>
<path d="M3 16.3638H0.5V25.4546H3V16.3638Z" fill="white"/>
<path fill-rule="evenodd" clip-rule="evenodd" d="M28.24 16.4404L20.5 11.9717L12.76 16.4404V25.3777L20.5 29.8464L28.24 25.3777V16.4404ZM17.176 18.99L20.5 24.7473L23.824 18.99L17.176 18.99Z" fill="white"/>
</svg>
