<svg width="40" height="40" viewBox="0 0 40 40" fill="none" xmlns="http://www.w3.org/2000/svg">
<path d="M24.5457 40V37.5H15.4548V40H24.5457Z" fill="white"/>
<path d="M32.273 37.4934V39.9954C36.4744 39.8547 39.8549 36.4742 39.9957 32.2727H37.4936C37.3559 35.0932 35.0935 37.3556 32.273 37.4934Z" fill="white"/>
<path d="M32.273 2.50664V0.00456122C36.4745 0.145305 39.855 3.52582 39.9957 7.72732H37.4936C37.3559 4.90677 35.0935 2.64437 32.273 2.50664Z" fill="white"/>
<path d="M24.5457 2.5V0H15.4548V2.5H24.5457Z" fill="white"/>
<path d="M7.72752 39.9954L7.72752 37.4934C4.90699 37.3556 2.64461 35.0932 2.50689 32.2727H0.004805C0.145543 36.4742 3.52604 39.8547 7.72752 39.9954Z" fill="white"/>
<path d="M37.5002 15.4546H40.0002V24.5454H37.5002V15.4546Z" fill="white"/>
<path d="M7.72752 2.50664C4.90699 2.64437 2.6446 4.90677 2.50689 7.72732L0.00480419 7.72731C0.14553 3.52582 3.52604 0.145306 7.72752 0.00456127L7.72752 2.50664Z" fill="white"/>
<path d="M2.50024 15.4546H0.000244141V24.5454H2.50024V15.4546Z" fill="white"/>
<circle cx="20.0002" cy="20.0001" r="3.50938" fill="white"/>
<path fill-rule="evenodd" clip-rule="evenodd" d="M27.648 13.0928C27.4005 13.3666 27.1385 13.6272 26.8632 13.8731C28.3165 15.5 29.2 17.6468 29.2 20C29.2 22.3532 28.3165 24.5001 26.863 26.127C27.1383 26.373 27.4003 26.6335 27.6478 26.9073C29.2995 25.0798 30.3054 22.6573 30.3054 20C30.3054 17.3427 29.2996 14.9203 27.648 13.0928ZM12.3527 26.9073C12.6002 26.6335 12.8622 26.373 13.1375 26.127C11.684 24.5001 10.8005 22.3532 10.8005 20C10.8005 17.6468 11.6839 15.5 13.1373 13.8731C12.862 13.6272 12.6 13.3666 12.3525 13.0928C10.7009 14.9203 9.69513 17.3427 9.69513 20C9.69513 22.6573 10.701 25.0798 12.3527 26.9073ZM14.4542 14.8726C13.2085 16.2193 12.4472 18.0207 12.4472 20C12.4472 21.9793 13.2086 23.7808 14.4545 25.1276C14.7742 24.923 15.1061 24.7356 15.4486 24.5667C14.2774 23.3993 13.5526 21.7843 13.5526 20C13.5526 18.2158 14.2773 16.6008 15.4483 15.4335C15.1058 15.2645 14.774 15.0771 14.4542 14.8726ZM24.5521 15.4335C25.7232 16.6008 26.4479 18.2158 26.4479 20C26.4479 21.7843 25.7231 23.3993 24.5519 24.5667C24.8944 24.7356 25.2263 24.923 25.546 25.1276C26.7919 23.7808 27.5533 21.9793 27.5533 20C27.5533 18.0207 26.792 16.2193 25.5463 14.8726C25.2265 15.0771 24.8947 15.2645 24.5521 15.4335Z" fill="white"/>
</svg>
