<svg width="40" height="41" viewBox="0 0 40 41" fill="none" xmlns="http://www.w3.org/2000/svg">
<path d="M20 18.0701V12.0701L28 20.0701L20 28.0701V22.0701H12V18.0701H20ZM20 0.0700684C31.04 0.0700684 40 9.03007 40 20.0701C40 31.1101 31.04 40.0701 20 40.0701C8.96 40.0701 0 31.1101 0 20.0701C0 9.03007 8.96 0.0700684 20 0.0700684ZM20 36.0701C28.84 36.0701 36 28.9101 36 20.0701C36 11.2301 28.84 4.07007 20 4.07007C11.16 4.07007 4 11.2301 4 20.0701C4 28.9101 11.16 36.0701 20 36.0701Z" fill="white"/>
</svg>
