<svg width="44" height="44" viewBox="0 0 44 44" fill="none" xmlns="http://www.w3.org/2000/svg">
<path d="M22 44C34.1506 44 44 34.1506 44 22C44 9.8494 34.1506 0 22 0C9.8494 0 0 9.8494 0 22C0 34.1506 9.8494 44 22 44ZM22 39.6C17.3322 39.6 12.8556 37.7457 9.55492 34.4451C6.25428 31.1444 4.4 26.6678 4.4 22C4.4 17.3322 6.25428 12.8556 9.55492 9.55492C12.8556 6.25428 17.3322 4.4 22 4.4C26.6678 4.4 31.1444 6.25428 34.4451 9.55492C37.7457 12.8556 39.6 17.3322 39.6 22C39.6 26.6678 37.7457 31.1444 34.4451 34.4451C31.1444 37.7457 26.6678 39.6 22 39.6ZM22 18.8892L15.7784 12.6654L12.6654 15.7784L18.8892 22L12.6654 28.2216L15.7784 31.3346L22 25.1108L28.2216 31.3346L31.3346 28.2216L25.1108 22L31.3346 15.7784L28.2216 12.6654L22 18.8892Z" fill="white"/>
</svg>
