<svg width="38" height="45" viewBox="0 0 38 45" fill="none" xmlns="http://www.w3.org/2000/svg">
<path d="M19 0.0700684L38 11.0701V33.0701L19 44.0701L0 33.0701V11.0701L19 0.0700684ZM19 4.69207L4 13.3761V30.7641L19 39.4481L34 30.7641V13.3761L19 4.69207ZM19 30.0701C16.8783 30.0701 14.8434 29.2272 13.3431 27.7269C11.8429 26.2266 11 24.1918 11 22.0701C11 19.9483 11.8429 17.9135 13.3431 16.4132C14.8434 14.9129 16.8783 14.0701 19 14.0701C21.1217 14.0701 23.1566 14.9129 24.6569 16.4132C26.1571 17.9135 27 19.9483 27 22.0701C27 24.1918 26.1571 26.2266 24.6569 27.7269C23.1566 29.2272 21.1217 30.0701 19 30.0701ZM19 26.0701C20.0609 26.0701 21.0783 25.6486 21.8284 24.8985C22.5786 24.1483 23 23.1309 23 22.0701C23 21.0092 22.5786 19.9918 21.8284 19.2416C21.0783 18.4915 20.0609 18.0701 19 18.0701C17.9391 18.0701 16.9217 18.4915 16.1716 19.2416C15.4214 19.9918 15 21.0092 15 22.0701C15 23.1309 15.4214 24.1483 16.1716 24.8985C16.9217 25.6486 17.9391 26.0701 19 26.0701Z" fill="white"/>
</svg>
