<svg width="44" height="44" viewBox="0 0 44 44" fill="none" xmlns="http://www.w3.org/2000/svg">
<path d="M22 0L42 11V33L22 44L2 33V11L22 0ZM22 4.622L6.21053 13.306V30.694L22 39.378L37.7895 30.694V13.306L22 4.622ZM22 30C19.7666 30 17.6247 29.1571 16.0454 27.6569C14.4662 26.1566 13.5789 24.1217 13.5789 22C13.5789 19.8783 14.4662 17.8434 16.0454 16.3431C17.6247 14.8429 19.7666 14 22 14C24.2334 14 26.3753 14.8429 27.9546 16.3431C29.5338 17.8434 30.4211 19.8783 30.4211 22C30.4211 24.1217 29.5338 26.1566 27.9546 27.6569C26.3753 29.1571 24.2334 30 22 30ZM22 26C23.1167 26 24.1877 25.5786 24.9773 24.8284C25.7669 24.0783 26.2105 23.0609 26.2105 22C26.2105 20.9391 25.7669 19.9217 24.9773 19.1716C24.1877 18.4214 23.1167 18 22 18C20.8833 18 19.8123 18.4214 19.0227 19.1716C18.2331 19.9217 17.7895 20.9391 17.7895 22C17.7895 23.0609 18.2331 24.0783 19.0227 24.8284C19.8123 25.5786 20.8833 26 22 26Z" fill="white"/>
</svg>
