<svg width="44" height="36" viewBox="0 0 44 36" fill="none" xmlns="http://www.w3.org/2000/svg">
<path d="M22.0001 0C32.7841 0 41.7561 7.76 43.6381 18C41.7581 28.24 32.7841 36 22.0001 36C11.2161 36 2.24406 28.24 0.362061 18C2.24206 7.76 11.2161 0 22.0001 0ZM22.0001 32C26.079 31.9991 30.0368 30.6136 33.2258 28.0703C36.4147 25.527 38.6459 21.9765 39.5541 18C38.6425 14.0266 36.4099 10.48 33.2213 7.94005C30.0327 5.40009 26.0767 4.01706 22.0001 4.01706C17.9235 4.01706 13.9674 5.40009 10.7788 7.94005C7.59018 10.48 5.35759 14.0266 4.44606 18C5.35425 21.9765 7.58541 25.527 10.7743 28.0703C13.9633 30.6136 17.9211 31.9991 22.0001 32ZM22.0001 27C19.6131 27 17.3239 26.0518 15.6361 24.364C13.9483 22.6761 13.0001 20.3869 13.0001 18C13.0001 15.6131 13.9483 13.3239 15.6361 11.636C17.3239 9.94821 19.6131 9 22.0001 9C24.387 9 26.6762 9.94821 28.364 11.636C30.0518 13.3239 31.0001 15.6131 31.0001 18C31.0001 20.3869 30.0518 22.6761 28.364 24.364C26.6762 26.0518 24.387 27 22.0001 27ZM22.0001 23C23.3261 23 24.5979 22.4732 25.5356 21.5355C26.4733 20.5979 27.0001 19.3261 27.0001 18C27.0001 16.6739 26.4733 15.4021 25.5356 14.4645C24.5979 13.5268 23.3261 13 22.0001 13C20.674 13 19.4022 13.5268 18.4645 14.4645C17.5268 15.4021 17.0001 16.6739 17.0001 18C17.0001 19.3261 17.5268 20.5979 18.4645 21.5355C19.4022 22.4732 20.674 23 22.0001 23Z" fill="white"/>
</svg>
