<svg width="44" height="44" viewBox="0 0 44 44" fill="none" xmlns="http://www.w3.org/2000/svg">
<path d="M8.7956 11L13.8776 2.20001H21.9956L16.9136 11H8.7956ZM21.9956 11L27.0776 2.20001H35.1956L30.1136 11H21.9956ZM35.1956 11L40.2776 2.20001H41.8176C43.0232 2.20001 44 3.17901 44 4.38461V39.6154C43.996 40.1932 43.7648 40.7462 43.3565 41.1549C42.9481 41.5637 42.3954 41.7954 41.8176 41.8H2.1824C1.60339 41.7994 1.04829 41.569 0.639077 41.1594C0.22986 40.7497 -2.93601e-07 40.1944 0 39.6154V4.38461C0.0040261 3.80684 0.235181 3.25385 0.643528 2.84509C1.05188 2.43633 1.60464 2.20462 2.1824 2.20001H8.7956L4.4 9.81201V37.4H39.6V11H35.1956Z" fill="white"/>
</svg>
