<svg width="40" height="41" viewBox="0 0 40 41" fill="none" xmlns="http://www.w3.org/2000/svg">
<path d="M20 40.0701C8.954 40.0701 0 31.1161 0 20.0701C0 9.02407 8.954 0.0700684 20 0.0700684C31.046 0.0700684 40 9.02407 40 20.0701C40 31.1161 31.046 40.0701 20 40.0701ZM10.026 32.5821C12.8571 34.8455 16.3754 36.0758 20 36.0701C23.94 36.0701 27.546 34.6461 30.334 32.2861C29.0314 30.9496 27.4741 29.8878 25.7541 29.1637C24.034 28.4395 22.1863 28.0677 20.32 28.0701C18.3852 28.0678 16.471 28.4678 14.6989 29.2445C12.9269 30.0212 11.3356 31.1578 10.026 32.5821ZM7.232 29.7101C8.91291 27.9262 10.9413 26.5055 13.1923 25.5355C15.4432 24.5655 17.869 24.0668 20.32 24.0701C22.6833 24.067 25.0239 24.5308 27.2075 25.4348C29.391 26.3389 31.3745 27.6653 33.044 29.3381C34.7562 26.9283 35.7673 24.0913 35.9651 21.1419C36.163 18.1924 35.5399 15.2458 34.165 12.629C32.79 10.0121 30.717 7.82731 28.1759 6.31696C25.6348 4.8066 22.725 4.02975 19.7692 4.07257C16.8134 4.1154 13.9273 4.97624 11.431 6.55958C8.93476 8.14293 6.92592 10.3869 5.62738 13.0425C4.32885 15.6981 3.79139 18.6615 4.07463 21.604C4.35787 24.5464 5.45075 27.3509 7.232 29.7101ZM20 22.0701C17.8783 22.0701 15.8434 21.2272 14.3431 19.7269C12.8429 18.2266 12 16.1918 12 14.0701C12 11.9483 12.8429 9.9135 14.3431 8.41321C15.8434 6.91292 17.8783 6.07007 20 6.07007C22.1217 6.07007 24.1566 6.91292 25.6569 8.41321C27.1571 9.9135 28 11.9483 28 14.0701C28 16.1918 27.1571 18.2266 25.6569 19.7269C24.1566 21.2272 22.1217 22.0701 20 22.0701ZM20 18.0701C21.0609 18.0701 22.0783 17.6486 22.8284 16.8985C23.5786 16.1483 24 15.1309 24 14.0701C24 13.0092 23.5786 11.9918 22.8284 11.2416C22.0783 10.4915 21.0609 10.0701 20 10.0701C18.9391 10.0701 17.9217 10.4915 17.1716 11.2416C16.4214 11.9918 16 13.0092 16 14.0701C16 15.1309 16.4214 16.1483 17.1716 16.8985C17.9217 17.6486 18.9391 18.0701 20 18.0701Z" fill="white"/>
</svg>
