<svg width="906" height="523" viewBox="0 0 906 523" fill="none" xmlns="http://www.w3.org/2000/svg">
<path d="M526.45 134.403L533.929 130.085L542.343 132.784L559.172 123.068L554.497 118.21L561.976 113.892L581.142 124.094L597.597 128.844L597.503 132.244L624.616 144.659L619.941 153.835L595.633 167.869L579.74 170.568L558.237 154.915L552.347 154.969L544.12 145.469L526.45 134.403Z" fill="#27DE36"/>
<path d="M526.449 134.404L559.171 150.057L581.609 165.171L595.633 167.869L619.941 153.835L615.266 145.739L589.089 132.784L561.976 113.892L581.142 124.094L594.511 129.438L597.503 132.244L624.615 144.659L619.941 153.835L595.633 167.869L579.739 170.568L558.236 154.915L553.562 153.296L544.119 145.469L526.449 134.404Z" fill="black" fill-opacity="0.15"/>
<path d="M562.911 141.421L538.603 125.227L546.083 120.909L574.13 134.943L583.479 133.864L592.828 139.261L606.852 150.597L590.024 160.313L570.39 152.216L561.041 146.818L562.911 141.421Z" fill="white"/>
<path d="M561.041 146.818L562.911 141.42L538.603 125.227L568.521 142.5L563.846 147.358L570.39 152.216L561.041 146.818Z" fill="black" fill-opacity="0.15"/>
<path d="M574.13 134.943L583.479 133.864L592.828 139.261L584.414 135.483L576 138.182L546.083 120.909L574.13 134.943Z" fill="black" fill-opacity="0.15"/>
<path d="M296.461 340.596L288.981 344.915L280.567 342.216L263.739 351.932L268.413 356.79L260.934 361.108L241.768 350.906L225.314 346.156L225.407 342.756L198.295 330.341L202.969 321.165L227.277 307.131L243.171 304.432L264.674 320.085L270.563 320.031L278.791 329.531L296.461 340.596Z" fill="#C548FF"/>
<path d="M296.461 340.596L263.739 324.943L241.301 309.829L227.277 307.13L202.969 321.165L207.644 329.261L233.822 342.216L260.934 361.108L241.768 350.906L228.399 345.562L225.407 342.755L198.295 330.341L202.969 321.165L227.277 307.13L243.171 304.432L264.674 320.085L269.348 321.704L278.791 329.531L296.461 340.596Z" fill="black" fill-opacity="0.15"/>
<path d="M248.032 325.375L276.079 311.341L283.559 315.659L259.251 331.852L261.121 337.25L251.772 342.648L232.139 350.744L215.31 341.028L229.334 329.693L238.683 324.295L248.032 325.375Z" fill="white"/>
<path d="M238.683 324.295L248.032 325.375L276.079 311.341L246.162 328.614L237.748 325.915L229.334 329.693L238.683 324.295Z" fill="black" fill-opacity="0.15"/>
<path d="M259.251 331.852L261.121 337.25L251.772 342.648L258.316 337.79L253.642 332.932L283.559 315.659L259.251 331.852Z" fill="black" fill-opacity="0.15"/>
<g filter="url(#filter0_d_281_2615)">
<rect x="12.1244" y="-4.17233e-07" width="81" height="81" rx="9" transform="matrix(0.866025 -0.5 0.866025 0.5 659.897 148.562)" stroke="white" stroke-width="14"/>
</g>
<g filter="url(#filter1_d_281_2615)">
<rect x="12.1244" y="-4.17233e-07" width="81" height="81" rx="9" transform="matrix(0.866025 -0.5 0.866025 0.5 166.262 243.562)" stroke="white" stroke-width="14"/>
</g>
<g filter="url(#filter2_d_281_2615)">
<rect x="12.1244" y="-4.17233e-07" width="81" height="81" rx="9" transform="matrix(0.866025 -0.5 0.866025 0.5 495.352 338.562)" stroke="white" stroke-width="14"/>
</g>
<g filter="url(#filter3_d_281_2615)">
<rect x="12.1244" y="-4.17233e-07" width="81" height="81" rx="9" transform="matrix(0.866025 -0.5 0.866025 0.5 83.9898 386.062)" stroke="white" stroke-width="14"/>
</g>
<path d="M424.095 225.884C429.48 222.775 439.502 221.307 439.502 221.307C439.502 221.307 436.959 227.093 431.574 230.202C427.386 232.621 420.804 236.421 420.804 236.421L413.325 232.102C413.325 232.102 419.906 228.302 424.095 225.884Z" fill="white"/>
<path d="M549.134 175.784L543.74 161.125L518.35 158.011L541.687 151.784L528.365 144.093L563.659 149.625L573.241 170.002L560.063 162.393L549.134 175.784Z" fill="white"/>
<defs>
<filter id="filter0_d_281_2615" x="594.389" y="27.6863" width="292.311" height="229.627" filterUnits="userSpaceOnUse" color-interpolation-filters="sRGB">
<feFlood flood-opacity="0" result="BackgroundImageFix"/>
<feColorMatrix in="SourceAlpha" type="matrix" values="0 0 0 0 0 0 0 0 0 0 0 0 0 0 0 0 0 0 127 0" result="hardAlpha"/>
<feOffset/>
<feGaussianBlur stdDeviation="36"/>
<feColorMatrix type="matrix" values="0 0 0 0 0 0 0 0 0 0.65098 0 0 0 0 1 0 0 0 1 0"/>
<feBlend mode="normal" in2="BackgroundImageFix" result="effect1_dropShadow_281_2615"/>
<feBlend mode="normal" in="SourceGraphic" in2="effect1_dropShadow_281_2615" result="shape"/>
</filter>
<filter id="filter1_d_281_2615" x="100.755" y="122.686" width="292.311" height="229.627" filterUnits="userSpaceOnUse" color-interpolation-filters="sRGB">
<feFlood flood-opacity="0" result="BackgroundImageFix"/>
<feColorMatrix in="SourceAlpha" type="matrix" values="0 0 0 0 0 0 0 0 0 0 0 0 0 0 0 0 0 0 127 0" result="hardAlpha"/>
<feOffset/>
<feGaussianBlur stdDeviation="36"/>
<feColorMatrix type="matrix" values="0 0 0 0 0 0 0 0 0 0.65098 0 0 0 0 1 0 0 0 1 0"/>
<feBlend mode="normal" in2="BackgroundImageFix" result="effect1_dropShadow_281_2615"/>
<feBlend mode="normal" in="SourceGraphic" in2="effect1_dropShadow_281_2615" result="shape"/>
</filter>
<filter id="filter2_d_281_2615" x="429.844" y="217.686" width="292.311" height="229.627" filterUnits="userSpaceOnUse" color-interpolation-filters="sRGB">
<feFlood flood-opacity="0" result="BackgroundImageFix"/>
<feColorMatrix in="SourceAlpha" type="matrix" values="0 0 0 0 0 0 0 0 0 0 0 0 0 0 0 0 0 0 127 0" result="hardAlpha"/>
<feOffset/>
<feGaussianBlur stdDeviation="36"/>
<feColorMatrix type="matrix" values="0 0 0 0 0 0 0 0 0 0.65098 0 0 0 0 1 0 0 0 1 0"/>
<feBlend mode="normal" in2="BackgroundImageFix" result="effect1_dropShadow_281_2615"/>
<feBlend mode="normal" in="SourceGraphic" in2="effect1_dropShadow_281_2615" result="shape"/>
</filter>
<filter id="filter3_d_281_2615" x="18.4823" y="265.186" width="292.311" height="229.627" filterUnits="userSpaceOnUse" color-interpolation-filters="sRGB">
<feFlood flood-opacity="0" result="BackgroundImageFix"/>
<feColorMatrix in="SourceAlpha" type="matrix" values="0 0 0 0 0 0 0 0 0 0 0 0 0 0 0 0 0 0 127 0" result="hardAlpha"/>
<feOffset/>
<feGaussianBlur stdDeviation="36"/>
<feColorMatrix type="matrix" values="0 0 0 0 0 0 0 0 0 0.65098 0 0 0 0 1 0 0 0 1 0"/>
<feBlend mode="normal" in2="BackgroundImageFix" result="effect1_dropShadow_281_2615"/>
<feBlend mode="normal" in="SourceGraphic" in2="effect1_dropShadow_281_2615" result="shape"/>
</filter>
</defs>
</svg>
